<svg width="36" height="36" viewBox="0 0 36 36" fill="none" xmlns="http://www.w3.org/2000/svg">
<rect width="36" height="36" fill="#F63A22"/>
<path d="M16.888 27H5.704V24.936L11.296 19.896C12.112 19.16 12.784 18.408 13.312 17.64C13.84 16.856 14.104 16.032 14.104 15.168V14.88C14.104 13.872 13.84 13.096 13.312 12.552C12.784 11.992 12 11.712 10.96 11.712C9.936 11.712 9.144 11.976 8.584 12.504C8.04 13.016 7.632 13.704 7.36 14.568L5.56 13.896C5.72 13.4 5.936 12.92 6.208 12.456C6.496 11.976 6.856 11.552 7.288 11.184C7.72 10.816 8.24 10.52 8.848 10.296C9.472 10.072 10.192 9.96 11.008 9.96C11.84 9.96 12.576 10.08 13.216 10.32C13.872 10.56 14.416 10.896 14.848 11.328C15.296 11.76 15.632 12.272 15.856 12.864C16.096 13.456 16.216 14.104 16.216 14.808C16.216 15.448 16.12 16.048 15.928 16.608C15.752 17.168 15.496 17.704 15.16 18.216C14.84 18.728 14.448 19.232 13.984 19.728C13.536 20.208 13.032 20.688 12.472 21.168L7.792 25.248H16.888V27ZM30.0786 27H18.8946V24.936L24.4866 19.896C25.3026 19.16 25.9746 18.408 26.5026 17.64C27.0306 16.856 27.2946 16.032 27.2946 15.168V14.88C27.2946 13.872 27.0306 13.096 26.5026 12.552C25.9746 11.992 25.1906 11.712 24.1506 11.712C23.1266 11.712 22.3346 11.976 21.7746 12.504C21.2306 13.016 20.8226 13.704 20.5506 14.568L18.7506 13.896C18.9106 13.4 19.1266 12.92 19.3986 12.456C19.6866 11.976 20.0466 11.552 20.4786 11.184C20.9106 10.816 21.4306 10.52 22.0386 10.296C22.6626 10.072 23.3826 9.96 24.1986 9.96C25.0306 9.96 25.7666 10.08 26.4066 10.32C27.0626 10.56 27.6066 10.896 28.0386 11.328C28.4866 11.76 28.8226 12.272 29.0466 12.864C29.2866 13.456 29.4066 14.104 29.4066 14.808C29.4066 15.448 29.3106 16.048 29.1186 16.608C28.9426 17.168 28.6866 17.704 28.3506 18.216C28.0306 18.728 27.6386 19.232 27.1746 19.728C26.7266 20.208 26.2226 20.688 25.6626 21.168L20.9826 25.248H30.0786V27Z" fill="black"/>
</svg>
