<svg width="36" height="36" viewBox="0 0 36 36" fill="none" xmlns="http://www.w3.org/2000/svg">
<g clip-path="url(#clip0_116_6)">
<path d="M17.9888 20.4282V24H0.565918V23.7495C0.565918 22.5435 0.800944 21.4827 1.271 20.5674C1.74105 19.652 2.35026 18.9315 3.09863 18.4058C3.84701 17.88 4.67578 17.4378 5.58496 17.0791C6.50033 16.7142 7.40951 16.4482 8.3125 16.2812C9.21549 16.1081 10.0412 15.9658 10.7896 15.8545C11.5379 15.737 12.1471 15.6164 12.6172 15.4927C13.0872 15.3628 13.3223 15.202 13.3223 15.0103C13.3223 14.6577 13.1398 14.4474 12.7749 14.3794C12.4162 14.3052 11.439 14.2681 9.84326 14.2681H7.6167C6.86833 14.2681 6.35498 14.3423 6.07666 14.4907C5.79834 14.6392 5.61589 14.9082 5.5293 15.2979H0.983398C1.09473 14.5124 1.25244 13.8599 1.45654 13.3403C1.66064 12.8208 2.06266 12.2518 2.6626 11.6333C3.26253 11.0086 4.56755 10.6963 6.57764 10.6963H11.6616C14.5252 10.6963 16.2354 11.1354 16.792 12.0137C17.3548 12.8857 17.6764 13.5073 17.7568 13.8784C17.8372 14.2433 17.8774 14.6484 17.8774 15.0938C17.8774 15.5329 17.8001 15.9318 17.6455 16.2905C17.4971 16.6431 17.0951 17.1224 16.4395 17.7285C15.7839 18.3346 14.6087 18.7336 12.9141 18.9253C11.2194 19.117 10.2793 19.2284 10.0938 19.2593C9.91439 19.2902 9.40723 19.3768 8.57227 19.519C7.7373 19.6551 7.23014 19.9582 7.05078 20.4282H17.9888ZM35.2461 20.4282V24H17.8233V23.7495C17.8233 22.5435 18.0583 21.4827 18.5283 20.5674C18.9984 19.652 19.6076 18.9315 20.356 18.4058C21.1043 17.88 21.9331 17.4378 22.8423 17.0791C23.7577 16.7142 24.6668 16.4482 25.5698 16.2812C26.4728 16.1081 27.2985 15.9658 28.0469 15.8545C28.7953 15.737 29.4045 15.6164 29.8745 15.4927C30.3446 15.3628 30.5796 15.202 30.5796 15.0103C30.5796 14.6577 30.3972 14.4474 30.0322 14.3794C29.6735 14.3052 28.6963 14.2681 27.1006 14.2681H24.874C24.1257 14.2681 23.6123 14.3423 23.334 14.4907C23.0557 14.6392 22.8732 14.9082 22.7866 15.2979H18.2407C18.3521 14.5124 18.5098 13.8599 18.7139 13.3403C18.918 12.8208 19.32 12.2518 19.9199 11.6333C20.5199 11.0086 21.8249 10.6963 23.835 10.6963H28.919C31.7826 10.6963 33.4927 11.1354 34.0493 12.0137C34.6122 12.8857 34.9338 13.5073 35.0142 13.8784C35.0946 14.2433 35.1348 14.6484 35.1348 15.0938C35.1348 15.5329 35.0575 15.9318 34.9029 16.2905C34.7544 16.6431 34.3524 17.1224 33.6968 17.7285C33.0412 18.3346 31.8661 18.7336 30.1714 18.9253C28.4767 19.117 27.5366 19.2284 27.3511 19.2593C27.1717 19.2902 26.6646 19.3768 25.8296 19.519C24.9946 19.6551 24.4875 19.9582 24.3081 20.4282H35.2461Z" fill="#FF5802"/>
</g>
<defs>
<clipPath id="clip0_116_6">
<rect width="36" height="36" fill="white"/>
</clipPath>
</defs>
</svg>
