<svg width="76" height="32" viewBox="0 0 76 32" fill="none" xmlns="http://www.w3.org/2000/svg">
<path d="M1.67764 0H0V32H1.67764V0Z" fill="#CECECE"/>
<path d="M3.3555 0H2.5166V32H3.3555V0Z" fill="#CECECE"/>
<path d="M5.87198 0H5.03308V32H5.87198V0Z" fill="#CECECE"/>
<path d="M10.9049 0H9.22729V32H10.9049V0Z" fill="#CECECE"/>
<path d="M12.5828 0H11.7439V32H12.5828V0Z" fill="#CECECE"/>
<path d="M15.9383 0H15.0994V32H15.9383V0Z" fill="#CECECE"/>
<path d="M19.2936 0H18.4547V32H19.2936V0Z" fill="#CECECE"/>
<path d="M20.9712 0H20.1323V32H20.9712V0Z" fill="#CECECE"/>
<path d="M25.1654 0H23.4878V32H25.1654V0Z" fill="#CECECE"/>
<path d="M28.5209 0H27.682V32H28.5209V0Z" fill="#CECECE"/>
<path d="M31.8762 0H29.3596V32H31.8762V0Z" fill="#CECECE"/>
<path d="M34.3927 0H32.7151V32H34.3927V0Z" fill="#CECECE"/>
<path d="M37.7482 0H36.9093V32H37.7482V0Z" fill="#CECECE"/>
<path d="M41.1037 0H38.5872V32H41.1037V0Z" fill="#CECECE"/>
<path d="M43.62 0H41.9424V32H43.62V0Z" fill="#CECECE"/>
<path d="M48.6533 0H46.1367V32H48.6533V0Z" fill="#CECECE"/>
<path d="M52.0087 0H51.1698V32H52.0087V0Z" fill="#CECECE"/>
<path d="M54.5251 0H52.8474V32H54.5251V0Z" fill="#CECECE"/>
<path d="M56.2029 0H55.364V32H56.2029V0Z" fill="#CECECE"/>
<path d="M60.3971 0H57.0416V32H60.3971V0Z" fill="#CECECE"/>
<path d="M62.9136 0H62.0747V32H62.9136V0Z" fill="#CECECE"/>
<path d="M66.269 0H64.5913V32H66.269V0Z" fill="#CECECE"/>
<path d="M71.3022 0H68.7856V32H71.3022V0Z" fill="#CECECE"/>
<path d="M72.9798 0H72.1409V32H72.9798V0Z" fill="#CECECE"/>
<path d="M75.4964 0H73.8187V32H75.4964V0Z" fill="#CECECE"/>
</svg>
